<svg xmlns="http://www.w3.org/2000/svg" xmlns:xlink="http://www.w3.org/1999/xlink" version="1.1" x="0px" y="0px" viewBox="0 0 100 125" enable-background="new 0 0 100 100" xml:space="preserve"><path fill="#ff0000" d="M93.28,48.079l-1.063-1.063c-2.097-2.097-5.402-2.253-7.707-0.514L53.498,15.489c1.739-2.305,1.583-5.61-0.514-7.707  L51.921,6.72c-2.293-2.293-6.044-2.293-8.337,0L25.52,24.784c-2.293,2.293-2.293,6.044,0,8.337l1.063,1.063  c2.293,2.293,6.044,2.293,8.337,0l0.572-0.572l9.89,9.89l-38.09,38.09c-3.057,3.057-3.057,8.059,0,11.116  c3.057,3.057,8.059,3.057,11.116,0l38.09-38.09l9.89,9.89l-0.572,0.572c-2.293,2.293-2.293,6.044,0,8.337l1.063,1.063  c2.293,2.293,6.044,2.293,8.337,0L93.28,56.416C95.573,54.123,95.573,50.371,93.28,48.079z"/></svg>